<svg xmlns="http://www.w3.org/2000/svg" viewBox="-99 -865 868 978" preserveAspectRatio="xMidYMid meet">
  <defs>
    <linearGradient id="g" x1="0%" y1="0%" x2="100%" y2="100%">
      <stop offset="0%" stop-color="#F4D9B5"/>
      <stop offset="55%" stop-color="#F08A4A"/>
      <stop offset="100%" stop-color="#B83518"/>
    </linearGradient>
  </defs>
  <g transform="scale(1 -1)">
    <path d="M623 472C649 404 623 399 496 380C357 357 276 327 260 183H346C352 223 361 249 429 263C427 187 367 114 268 114C174 114 133 178 133 241C133 314 189 371 257 371C304 371 335 344 335 344L403 444C364 477 352 517 352 550C352 616 402 658 454 658C497 658 529 624 517 579C507 600 486 614 462 614C428 614 400 589 396 555C387 505 422 449 495 449C575 449 637 517 637 598C637 675 580 765 453 765C327 765 229 675 229 551C229 529 232 512 238 493C108 486 1 376 1 239C1 103 107 -13 266 -13C439 -13 559 126 563 278C749 302 782 383 721 509Z" fill="url(#g)"/>
  </g>
</svg>