<svg xmlns="http://www.w3.org/2000/svg" viewBox="-130 -936 1132 1092" preserveAspectRatio="xMidYMid meet">
  <defs>
    <linearGradient id="g" x1="0%" y1="0%" x2="100%" y2="100%">
      <stop offset="0%" stop-color="#F4D9B5"/>
      <stop offset="55%" stop-color="#F08A4A"/>
      <stop offset="100%" stop-color="#B83518"/>
    </linearGradient>
  </defs>
  <g transform="scale(1 -1)">
    <path d="M141 276C18 276 -30 186 -30 118C-30 53 14 -37 157 -37C238 -37 304 -8 355 36C420 -19 473 -56 568 -56C843 -56 982 243 982 469C982 684 857 836 611 836C350 836 209 661 209 483C209 383 255 316 255 316L361 395C361 395 338 439 338 487C338 583 426 713 601 713C760 713 824 606 824 471C824 292 714 73 560 73C511 73 470 95 431 124C455 161 476 201 491 241C491 242 590 485 590 485C619 557 671 579 671 579L642 664C542 664 472 588 444 519L348 282C338 258 327 234 314 212C246 258 195 276 141 276ZM148 87C114 87 89 99 89 127C89 151 109 173 147 173C175 173 203 160 246 127C217 102 185 87 148 87Z" fill="url(#g)"/>
  </g>
</svg>