<svg xmlns="http://www.w3.org/2000/svg" viewBox="-100 -978 886 1186" preserveAspectRatio="xMidYMid meet">
  <defs>
    <linearGradient id="g" x1="0%" y1="0%" x2="100%" y2="100%">
      <stop offset="0%" stop-color="#F4D9B5"/>
      <stop offset="55%" stop-color="#F08A4A"/>
      <stop offset="100%" stop-color="#B83518"/>
    </linearGradient>
  </defs>
  <g transform="scale(1 -1)">
    <path d="M575 497C695 497 766 580 766 670C766 748 711 836 575 836C512 836 457 816 413 786C408 810 406 836 407 864L305 878C302 815 310 752 330 696C304 652 291 601 291 549C291 506 301 479 301 479C152 493 0 366 0 186C0 24 122 -108 294 -108C488 -108 644 65 571 287L438 249C480 151 415 32 299 32C207 32 153 104 153 190C153 280 210 340 296 340C368 340 415 299 415 299L491 412C485 416 435 460 433 545C471 515 519 497 575 497ZM565 700C603 700 631 682 631 656C631 628 600 613 566 613C529 613 497 629 470 658C496 686 531 700 565 700Z" fill="url(#g)"/>
  </g>
</svg>