<svg xmlns="http://www.w3.org/2000/svg" viewBox="-100 -912 1166 1192" preserveAspectRatio="xMidYMid meet">
  <defs>
    <linearGradient id="g" x1="0%" y1="0%" x2="100%" y2="100%">
      <stop offset="0%" stop-color="#F4D9B5"/>
      <stop offset="55%" stop-color="#F08A4A"/>
      <stop offset="100%" stop-color="#B83518"/>
    </linearGradient>
  </defs>
  <g transform="scale(1 -1)">
    <path d="M991 278C903 144 852 153 792 157L1023 726H863L654 210C615 232 572 255 533 277L676 633C705 703 757 726 757 726L728 812C670 812 622 785 587 750C486 739 381 792 267 792C105 792 45 684 45 591C45 476 135 415 229 415C318 415 372 470 372 470L308 566C308 566 279 537 235 537C204 537 174 552 174 591C174 621 193 665 278 665C351 665 418 632 514 626L400 341C347 362 291 376 234 376C79 376 0 273 0 168C0 67 79 -19 212 -19C355 -19 432 72 485 169C530 147 569 124 611 104L534 -89L656 -180L750 53C892 23 962 86 1046 238C1039 257 1012 276 991 278ZM215 111C170 111 135 137 135 174C135 211 165 252 237 252C272 252 312 242 352 228C310 138 256 111 215 111Z" fill="url(#g)"/>
  </g>
</svg>