<svg xmlns="http://www.w3.org/2000/svg" viewBox="-165 -936 1103 1299" preserveAspectRatio="xMidYMid meet">
  <defs>
    <linearGradient id="g" x1="0%" y1="0%" x2="100%" y2="100%">
      <stop offset="0%" stop-color="#F4D9B5"/>
      <stop offset="55%" stop-color="#F08A4A"/>
      <stop offset="100%" stop-color="#B83518"/>
    </linearGradient>
  </defs>
  <g transform="scale(1 -1)">
    <path d="M110 257C-10 257 -65 160 -65 87C-65 19 -16 -71 119 -71C195 -71 253 -42 297 2C391 -84 443 -136 502 -183C563 -231 619 -263 685 -263C754 -263 835 -228 907 -159L816 -56C768 -102 725 -127 683 -127C655 -127 630 -116 581 -78C530 -36 430 54 374 106C400 154 422 208 440 258C585 256 687 300 756 352C867 434 918 550 918 642C918 770 829 836 736 836C532 836 432 619 342 400C235 432 228 515 228 538C228 629 297 658 299 659L223 770C148 727 92 643 92 539C92 418 164 322 293 280C281 255 270 229 258 205C213 236 167 257 110 257ZM709 678C741 678 756 659 756 625C756 590 732 518 666 461C625 426 569 397 492 390C567 568 640 678 709 678ZM107 51C80 51 58 67 58 93C58 118 77 141 107 141C129 141 156 127 189 98C164 69 136 51 107 51Z" fill="url(#g)"/>
  </g>
</svg>