<svg xmlns="http://www.w3.org/2000/svg" viewBox="-135 -933 1120 1342" preserveAspectRatio="xMidYMid meet">
  <defs>
    <linearGradient id="g" x1="0%" y1="0%" x2="100%" y2="100%">
      <stop offset="0%" stop-color="#F4D9B5"/>
      <stop offset="55%" stop-color="#F08A4A"/>
      <stop offset="100%" stop-color="#B83518"/>
    </linearGradient>
  </defs>
  <g transform="scale(1 -1)">
    <path d="M718 552C718 656 678 833 450 833C209 833 48 636 48 449C48 327 116 233 279 238L304 346C282 347 199 340 199 442C199 552 297 699 430 699C519 699 563 633 563 550C563 426 467 246 357 128C297 176 232 211 152 211C17 211 -35 113 -35 41C-35 -50 47 -117 151 -117C218 -117 290 -89 358 -43C450 -126 486 -172 559 -229C617 -273 676 -309 744 -309C812 -309 894 -273 965 -205L874 -101C826 -147 783 -172 741 -172C713 -172 685 -160 639 -123C591 -85 516 -15 459 38C605 179 718 390 718 552ZM157 5C124 5 88 19 88 51C88 73 106 91 141 91C178 91 219 71 257 41C222 18 187 5 157 5Z" fill="url(#g)"/>
  </g>
</svg>