<svg xmlns="http://www.w3.org/2000/svg" viewBox="-149 -948 954 1285" preserveAspectRatio="xMidYMid meet">
  <defs>
    <linearGradient id="g" x1="0%" y1="0%" x2="100%" y2="100%">
      <stop offset="0%" stop-color="#F4D9B5"/>
      <stop offset="55%" stop-color="#F08A4A"/>
      <stop offset="100%" stop-color="#B83518"/>
    </linearGradient>
  </defs>
  <g transform="scale(1 -1)">
    <path d="M122 219C122 331 219 402 322 350L370 471C195 561 -20 443 -20 213C-20 141 1 79 37 30C-29 -57 -60 -151 -45 -237H59C45 -159 67 -101 117 -42C168 -72 230 -90 300 -90C490 -90 632 37 632 238C632 293 622 356 610 418C702 508 785 599 785 696C785 766 740 848 629 848C510 848 429 757 429 610C429 552 441 486 455 423C352 330 223 215 141 138C128 162 122 189 122 219ZM483 246C483 135 408 48 298 48C271 48 245 53 223 64C296 130 390 213 479 296C480 278 483 261 483 246ZM576 624C576 647 579 714 628 714C654 714 660 694 660 677C660 642 637 603 584 548C579 576 576 602 576 624Z" fill="url(#g)"/>
  </g>
</svg>