<svg xmlns="http://www.w3.org/2000/svg" viewBox="-100 -890 1070 1354" preserveAspectRatio="xMidYMid meet">
  <defs>
    <linearGradient id="g" x1="0%" y1="0%" x2="100%" y2="100%">
      <stop offset="0%" stop-color="#F4D9B5"/>
      <stop offset="55%" stop-color="#F08A4A"/>
      <stop offset="100%" stop-color="#B83518"/>
    </linearGradient>
  </defs>
  <g transform="scale(1 -1)">
    <path d="M884 278C832 185 768 120 684 68L950 726H791L615 288C567 199 463 102 403 102C390 102 361 107 414 241L563 610C593 684 644 704 644 704L615 790C547 790 492 754 457 709C237 633 0 594 0 397C-1 289 82 212 204 212V343C179 343 134 354 134 403C134 479 250 511 382 553L266 268C180 60 239 -38 343 -38C406 -38 468 0 519 50L486 -31C441 -51 396 -68 368 -82C315 -106 241 -151 240 -233C240 -289 273 -364 377 -364C543 -364 589 -167 636 -52C751 8 848 79 940 238C932 257 905 276 884 278ZM359 -253C347 -253 331 -247 331 -228C331 -203 356 -180 381 -166C395 -157 417 -148 444 -136C410 -218 386 -253 359 -253Z" fill="url(#g)"/>
  </g>
</svg>